<?xml version="1.0" encoding="utf-8"?>
<!-- Generator: Adobe Illustrator 16.0.4, SVG Export Plug-In . SVG Version: 6.00 Build 0)  -->
<!DOCTYPE svg PUBLIC "-//W3C//DTD SVG 1.1//EN" "http://www.w3.org/Graphics/SVG/1.1/DTD/svg11.dtd">
<svg version="1.1" id="Layer_1" xmlns="http://www.w3.org/2000/svg" xmlns:xlink="http://www.w3.org/1999/xlink" x="0px" y="0px"
	 width="104px" height="104px" viewBox="0 0 104 104" style="enable-background:new 0 0 104 104;" xml:space="preserve">
<g>
	<rect x="4.1" y="4" fill="#005EA6" width="95.9" height="78.4"/>
	<path fill="#FFFFFF" d="M23.9,41.9c-4.7,0-8.3-1.8-8.3-6.2c0-0.4,0-13,0-13h4.2c0,0,0,12.3,0,12.6c0,2,1.5,3.2,4.2,3.2
		c2.4,0,4.1-1.2,4.1-3.1c0-0.4,0-12.7,0-12.7h4.2c0,0,0,12.9,0,13.2C32.3,40,28.8,41.9,23.9,41.9z"/>
	<rect x="31.2" y="37.8" fill="#FFFFFF" width="3.7" height="3.9"/>
	<rect x="51.2" y="37.8" fill="#FFFFFF" width="3.7" height="3.9"/>
	<path fill="#FFFFFF" d="M44,42c-5.7,0-7.8-1.7-8.6-4.1c-0.2-0.6-0.3-1.6-0.3-1.9h4.3c0,0.3,0.1,0.9,0.3,1.2c0.5,1.1,1.8,1.6,4.3,1.6
		c2.9,0,3.9-0.8,3.9-2c0-1.6-0.8-2.1-3.9-2.7c-0.5-0.1-1.9-0.4-2.8-0.5c-3.7-0.7-6-2.4-6-5.6c0-3.2,2.6-5.4,8.2-5.4
		c4.8,0,7,1.7,8,4.1c0.2,0.6,0.4,1.3,0.4,1.8h-4.3c0-0.2-0.1-0.6-0.3-0.9c-0.5-1.1-1.5-1.6-3.9-1.6c-3.2,0-3.8,0.7-3.8,1.8
		c0,1.4,1.1,1.9,4.2,2.6c1,0.2,2.2,0.5,2.6,0.5c3.8,0.7,5.7,2.3,5.7,5.5C52.1,39.7,49.4,42,44,42z"/>
	<polygon fill="#FFFFFF" points="27.3,65.1 19.6,52.3 19.6,65.1 15.7,65.1 15.7,46.1 20.5,46.1 27.8,58.4 27.8,46.1 31.8,46.1 
		31.8,65.1 	"/>
	<path fill="#FFFFFF" d="M46.2,64.1c-1.2,0.8-2.9,1.3-5.2,1.3c-3.1,0-5.6-0.9-7-3.1c-0.7-1.1-1.1-2.5-1.1-4.3c0-1.6,0.4-3,1.2-4.2
		c1.3-2,3.8-3.1,6.8-3.1c3.2,0,5.4,1.2,6.6,3c1,1.5,1.4,3.5,1.2,5.7H36.9c0,0.6,0.3,1.1,0.8,1.7c0.6,0.6,1.7,1,3.3,1
		c1.1,0,2-0.2,2.6-0.5c0.7-0.3,1.1-0.8,1.2-1.1h4C48.4,61.9,47.6,63.2,46.2,64.1z M44.1,55.1c-0.6-0.6-1.6-1.1-3.1-1.1
		c-1.5,0-2.5,0.4-3.2,1c-0.5,0.4-0.9,1.3-0.9,1.7h7.8C44.8,56.3,44.6,55.7,44.1,55.1z"/>
	<path fill="#FFFFFF" d="M68.8,65.1h-4.8c0,0-2.8-8-2.8-8.5c0-0.2-0.2-1-0.2-1s-0.2,0.8-0.2,1c0,0.5-2.8,8.5-2.8,8.5h-4.8l-5-14h4.3
		l3.4,10.4l3.1-10.4h4.5l3.2,10.4l3.3-10.4h4L68.8,65.1z"/>
	<path fill="#FFFFFF" d="M81.3,65.4c-4.7,0-7-0.9-7.6-3.2c-0.1-0.6-0.1-0.9-0.1-1.4h4c0,0.2,0,0.4,0.1,0.7c0.3,0.7,1.3,0.8,3.5,0.8
		c2.3,0,3-0.4,3-1.2c0-0.8-0.8-1-2.9-1.3c-0.5-0.1-2.2-0.3-3.1-0.5c-3.1-0.4-4.6-1.8-4.6-4.5c0-2.5,2.2-4.1,6.7-4.1c3.8,0,6.3,1,7,3
		c0.2,0.5,0.3,1.4,0.3,1.7h-3.9c0-0.2-0.1-0.6-0.2-0.8c-0.3-0.4-1-0.7-3-0.7c-2.2,0-2.9,0.4-2.9,1c0,0.6,0.4,0.8,2.4,1.1
		c0.8,0.1,2.8,0.4,3.3,0.5c3.4,0.5,4.8,1.8,4.8,4.4C88.3,63.9,86.1,65.4,81.3,65.4z"/>
	<rect x="4.1" y="86.7" fill="#C41623" width="95.9" height="13.3"/>
	<path fill="#FFFFFF" d="M100,0H4H0v4v96v4h4h96h4v-4V4V0H100z M100,4v78.4H4V4H100z M4,100V86.7h96V100H4z"/>
</g>
</svg>
